<?xml version="1.0" standalone="no"?>
<!DOCTYPE svg PUBLIC "-//W3C//DTD SVG 20010904//EN"
 "http://www.w3.org/TR/2001/REC-SVG-20010904/DTD/svg10.dtd">
<svg version="1.0" xmlns="http://www.w3.org/2000/svg"
 width="456.000000pt" height="456.000000pt" viewBox="0 0 456.000000 456.000000"
 preserveAspectRatio="xMidYMid meet">
<metadata>
Created by potrace 1.14, written by Peter Selinger 2001-2017
</metadata>
<g transform="translate(0.000000,456.000000) scale(0.100000,-0.100000)"
fill="#000000" stroke="none">
<path d="M2274 3762 l-82 -78 -28 20 c-16 11 -31 23 -34 26 -9 11 -117 90
-122 90 -3 0 -13 -47 -23 -105 -10 -58 -22 -105 -26 -105 -5 0 -30 8 -56 19
-26 10 -71 26 -99 34 l-50 15 17 -102 c10 -55 18 -106 19 -113 0 -7 -45 -26
-102 -44 -89 -27 -100 -33 -85 -44 10 -7 43 -34 73 -60 l55 -48 -33 -29 c-18
-16 -50 -44 -70 -63 -21 -18 -38 -35 -38 -39 0 -3 27 -6 60 -6 33 0 60 -1 60
-3 0 -2 -13 -43 -30 -92 -30 -88 -37 -121 -22 -99 8 11 76 54 86 54 4 0 4 -10
1 -21 -5 -16 -4 -19 6 -14 9 6 10 4 3 -11 -5 -10 -9 -51 -10 -91 -2 -70 -2
-72 43 -132 25 -34 49 -61 54 -61 21 0 7 -64 -23 -108 -18 -26 -36 -49 -39
-52 -13 -11 -139 -239 -180 -326 l-43 -91 -64 -12 c-109 -20 -168 -48 -225
-105 -59 -60 -139 -189 -163 -262 -8 -27 -34 -69 -56 -94 -22 -24 -63 -78 -91
-120 -28 -41 -76 -109 -108 -150 -110 -143 -194 -311 -220 -436 -12 -58 -9
-102 15 -220 2 -12 7 -39 10 -60 28 -178 76 -353 158 -579 l15 -40 1422 -2
1421 -3 25 55 c14 29 25 57 25 60 0 4 6 21 14 38 44 97 139 508 151 657 5 67
-56 255 -111 342 -16 24 -39 64 -53 89 -15 25 -41 63 -58 85 -18 21 -57 76
-87 121 -43 66 -51 85 -40 93 10 9 3 25 -37 79 -27 37 -49 70 -49 74 0 3 -10
17 -22 30 -13 13 -36 40 -51 60 -15 21 -36 37 -46 37 -12 0 -28 20 -47 58 -55
108 -148 170 -286 187 -22 3 -46 9 -52 14 -6 4 -24 12 -41 16 -16 5 -32 9 -35
10 -3 1 -21 5 -40 9 -19 5 -54 17 -77 28 -23 11 -52 21 -65 23 -36 5 -88 35
-88 52 0 24 -52 166 -68 185 -7 9 -20 14 -28 11 -17 -6 -18 8 -2 41 10 23 12
24 23 9 11 -14 14 -7 20 47 7 58 9 62 21 45 16 -22 16 -24 19 39 1 32 8 54 19
61 9 7 16 17 16 23 0 6 4 12 8 14 4 2 20 19 35 39 31 41 44 140 23 181 -21 40
-25 66 -10 72 8 3 11 12 8 21 -5 13 0 15 37 9 47 -7 48 -7 65 -5 6 0 -6 35
-28 77 -22 41 -38 77 -36 79 2 2 31 5 63 6 33 2 63 5 68 7 4 2 -26 38 -67 80
l-75 77 18 30 c40 65 84 155 80 160 -3 2 -46 6 -97 8 -50 1 -93 5 -95 7 -3 3
6 41 19 84 13 44 22 81 20 83 -2 2 -30 -3 -62 -11 -33 -8 -72 -17 -89 -20 -16
-3 -41 -8 -55 -11 -24 -6 -27 -1 -59 84 -18 50 -34 91 -35 91 0 0 -38 -36 -82
-78z m-393 -1257 c1 -14 2 -31 3 -37 1 -7 -4 -22 -11 -33 -6 -11 -28 -74 -47
-140 -28 -99 -39 -123 -62 -141 -40 -30 -74 -39 -74 -21 0 73 148 395 183 397
4 0 8 -11 8 -25z m89 -81 c0 -8 -4 -12 -10 -9 -5 3 -10 13 -10 21 0 8 5 12 10
9 6 -3 10 -13 10 -21z m-509 -1351 c1 -27 1 -59 1 -73 -4 -87 -2 -230 2 -255
14 -82 7 -142 -30 -255 -40 -124 -45 -148 -32 -156 4 -3 8 -14 8 -25 0 -11 9
-38 20 -59 15 -29 27 -40 43 -40 21 0 23 -4 22 -52 -1 -30 -6 -52 -12 -51 -6
1 -56 36 -112 78 -79 59 -101 81 -101 100 0 14 -19 44 -48 77 -37 41 -53 68
-66 118 -10 36 -23 74 -29 85 -6 11 -12 60 -14 109 -2 71 0 91 13 100 8 6 16
19 18 28 1 10 20 37 42 60 22 24 54 64 72 89 59 87 148 169 183 169 16 0 19
-8 20 -47z m1597 8 c69 -36 103 -69 148 -142 25 -39 72 -98 105 -129 59 -54
61 -57 52 -91 -5 -19 -6 -53 -3 -76 4 -24 3 -46 0 -50 -8 -10 -36 -89 -44
-124 -3 -14 -39 -60 -81 -102 -41 -42 -75 -80 -76 -84 -3 -33 -11 -49 -36 -70
-42 -37 -95 -83 -126 -112 l-28 -25 4 23 c2 14 1 42 -3 63 -5 28 -4 38 6 38
19 0 72 57 95 102 24 48 20 79 -23 152 -43 72 -55 113 -52 171 5 88 4 269 -1
295 -7 30 -7 117 -1 145 3 11 5 23 5 28 1 12 20 8 59 -12z"/>
</g>
</svg>
